<?xml version="1.0" standalone="no"?>
<!DOCTYPE svg PUBLIC "-//W3C//DTD SVG 20010904//EN"
 "http://www.w3.org/TR/2001/REC-SVG-20010904/DTD/svg10.dtd">
<svg version="1.0" xmlns="http://www.w3.org/2000/svg"
 width="149.000000pt" height="172.000000pt" viewBox="0 0 149.000000 172.000000"
 preserveAspectRatio="xMidYMid meet">

<g transform="translate(0.000000,172.000000) scale(0.100000,-0.100000)"
fill="#000000" stroke="none">
<path d="M0 1689 l0 -32 58 8 c31 4 85 7 120 6 34 -1 62 2 62 6 0 4 96 7 213
6 174 -2 226 -6 291 -23 44 -11 84 -24 90 -29 6 -5 37 -15 68 -22 32 -8 58
-16 58 -20 0 -3 10 -4 23 -2 14 3 29 -2 36 -11 8 -9 24 -16 36 -16 12 0 28 -6
34 -14 7 -8 23 -17 36 -20 13 -3 29 -15 35 -26 6 -11 17 -20 25 -20 8 0 15 -4
15 -9 0 -5 9 -13 21 -16 11 -4 46 -33 77 -66 31 -33 67 -62 79 -65 15 -4 26
-18 32 -42 6 -19 8 -38 6 -42 -6 -9 30 -42 37 -35 3 3 8 -6 12 -20 4 -14 11
-25 16 -25 6 0 10 104 10 280 l0 280 -745 0 -745 0 0 -31z"/>
<path d="M535 1536 c-183 -36 -336 -156 -420 -330 -116 -242 -74 -533 107
-731 33 -36 63 -64 65 -61 7 7 -20 45 -37 50 -13 3 -13 4 0 5 8 0 32 -15 52
-34 42 -40 130 -87 196 -105 90 -24 313 -6 295 23 -3 6 -1 7 5 3 6 -4 40 8 76
26 79 40 166 135 221 240 l38 71 -23 19 -22 18 25 0 c31 0 34 13 43 151 7 96
6 103 -9 90 -10 -7 -17 -10 -17 -5 0 5 -10 -2 -21 -16 -19 -23 -19 -23 -9 -2
6 12 19 28 29 34 21 13 16 52 -5 44 -19 -7 -27 11 -9 21 12 7 13 15 3 46 -6
20 -15 37 -20 37 -5 0 -7 4 -4 8 3 5 -5 29 -18 54 -19 38 -21 45 -7 41 13 -5
12 -2 -3 15 -25 29 -9 28 23 0 24 -22 24 -22 -5 28 -116 203 -327 302 -549
260z m-95 -106 c0 -5 -4 -10 -10 -10 -5 0 -10 5 -10 10 0 6 5 10 10 10 6 0 10
-4 10 -10z m30 -20 c0 -5 4 -9 9 -7 5 1 9 -1 10 -5 1 -8 -6 -8 -26 -1 -15 6
-17 23 -3 23 6 0 10 -4 10 -10z m380 -80 c0 -5 7 -7 16 -3 13 5 15 2 10 -14
-5 -14 -1 -23 10 -27 11 -4 14 -13 10 -30 -4 -16 0 -30 9 -40 8 -8 11 -17 6
-20 -5 -4 -11 -2 -13 3 -1 6 -14 1 -28 -10 -21 -16 -21 -18 -5 -13 15 4 13 0
-9 -19 -26 -22 -27 -25 -10 -29 16 -4 12 -9 -18 -27 -39 -24 -53 -40 -19 -21
24 13 31 13 31 0 0 -5 -17 -18 -37 -29 -45 -24 -37 -27 12 -7 19 8 35 11 35 7
0 -5 -13 -14 -29 -21 -16 -6 -38 -21 -48 -33 -17 -20 -16 -20 20 2 21 13 40
21 43 19 2 -3 -23 -22 -56 -42 -33 -21 -60 -39 -60 -42 0 -2 27 9 60 26 33 17
60 28 60 25 0 -3 -8 -18 -17 -33 l-17 -27 27 24 c15 14 27 20 27 14 0 -26 -50
-69 -118 -100 -41 -19 -72 -36 -70 -38 6 -7 103 19 133 35 50 28 84 86 92 159
6 59 7 62 21 45 12 -15 14 -16 9 -2 -3 9 -1 18 5 20 5 2 2 10 -8 18 -10 8 -15
10 -11 4 4 -7 -2 -14 -13 -17 -21 -5 -37 8 -21 18 6 3 8 12 4 20 -3 8 -1 15 3
16 5 0 18 2 30 4 53 10 97 -76 98 -190 0 -100 -27 -165 -105 -246 -74 -77
-131 -101 -231 -97 -43 2 -78 5 -78 8 0 3 -15 14 -32 24 -56 32 -118 99 -146
156 -20 43 -26 71 -26 125 -1 63 3 78 38 143 21 40 57 89 80 109 l41 35 -35
-17 -35 -17 35 32 c42 38 59 45 125 53 28 3 41 3 31 0 -15 -4 -16 -7 -5 -14
10 -6 5 -9 -16 -9 -16 0 -41 -4 -55 -8 -20 -6 -15 -8 29 -12 57 -5 80 -23 68
-54 -6 -14 -10 -15 -29 -5 -16 9 -23 9 -26 0 -2 -6 -14 -11 -26 -11 -12 0 -33
-12 -47 -27 l-24 -27 33 23 c18 13 36 20 40 17 3 -4 0 -11 -8 -17 -11 -7 -7
-8 14 -3 22 5 27 4 24 -7 -3 -8 -14 -13 -24 -12 -10 1 -14 0 -7 -3 9 -4 9 -13
2 -30 -12 -32 -12 -69 0 -39 5 11 19 29 31 40 l23 20 -5 -45 c-3 -25 -4 -39
-1 -32 7 19 21 14 26 -10 3 -13 3 -4 1 19 -4 45 10 67 21 32 4 -11 9 -19 11
-16 3 2 0 17 -6 33 -6 15 -8 40 -4 54 6 24 7 24 25 -15 12 -24 17 -30 14 -15
-3 14 -8 39 -11 55 -5 29 -5 30 12 10 l17 -20 -7 20 c-16 43 -18 73 -6 80 7 4
16 1 21 -6 6 -9 6 -1 2 20 -4 25 -3 32 5 27 7 -4 12 -1 12 6 0 8 7 24 16 36
16 23 34 29 34 12z m-450 -126 c0 -8 -5 -12 -10 -9 -6 4 -8 11 -5 16 9 14 15
11 15 -7z m-150 -94 c0 -5 -5 -10 -11 -10 -5 0 -7 5 -4 10 3 6 8 10 11 10 2 0
4 -4 4 -10z m817 -47 c-3 -10 -5 -2 -5 17 0 19 2 27 5 18 2 -10 2 -26 0 -35z
m-877 -35 c26 -19 32 -38 12 -38 -9 0 -62 46 -62 54 0 12 21 6 50 -16z m-30
-38 c0 -5 -4 -10 -10 -10 -5 0 -10 5 -10 10 0 6 5 10 10 10 6 0 10 -4 10 -10z
m140 -61 c0 -5 -7 -9 -15 -9 -15 0 -20 12 -9 23 8 8 24 -1 24 -14z m57 -14 c0
-8 -4 -12 -9 -9 -5 3 -6 10 -3 15 9 13 12 11 12 -6z m-137 -205 c0 -5 -5 -10
-11 -10 -5 0 -7 5 -4 10 3 6 8 10 11 10 2 0 4 -4 4 -10z m152 -52 c-7 -7 -12
-8 -12 -2 0 14 12 26 19 19 2 -3 -1 -11 -7 -17z m115 -53 c3 -8 9 -12 14 -9 5
3 6 -2 2 -11 -3 -9 -9 -13 -12 -8 -3 4 -19 15 -35 24 -16 9 -31 24 -32 33 -2
14 1 14 27 0 17 -8 33 -22 36 -29z m-254 20 c-3 -9 -8 -14 -10 -11 -3 3 -2 9
2 15 9 16 15 13 8 -4z m130 -50 c-3 -9 -8 -14 -10 -11 -3 3 -2 9 2 15 9 16 15
13 8 -4z m492 5 c3 -5 3 -10 -2 -10 -4 0 -18 -3 -30 -6 -13 -4 -23 -2 -23 4 0
9 15 16 42 21 4 0 10 -3 13 -9z m-135 -48 c0 -4 -9 -8 -19 -8 -15 0 -17 3 -9
13 10 12 28 9 28 -5z m167 -25 c-6 -20 -27 -19 -27 2 0 14 5 19 15 14 9 -3 14
-10 12 -16z m-497 -17 c8 -5 11 -10 5 -10 -5 0 -17 5 -25 10 -8 5 -10 10 -5
10 6 0 17 -5 25 -10z m325 0 c3 -5 1 -10 -4 -10 -6 0 -11 5 -11 10 0 6 2 10 4
10 3 0 8 -4 11 -10z m-55 -15 c0 -8 -9 -15 -20 -15 -20 0 -26 11 -13 23 12 13
33 7 33 -8z m261 -8 c-13 -13 -26 -3 -16 12 3 6 11 8 17 5 6 -4 6 -10 -1 -17z
m-504 -9 c-3 -8 -6 -5 -6 6 -1 11 2 17 5 13 3 -3 4 -12 1 -19z m213 -34 c0 -9
-5 -14 -12 -12 -18 6 -21 28 -4 28 9 0 16 -7 16 -16z m-2 -46 c-6 -18 -28 -21
-28 -4 0 9 7 16 16 16 9 0 14 -5 12 -12z"/>
<path d="M856 1215 c-11 -8 -15 -15 -10 -15 6 0 19 7 30 15 10 8 15 14 9 14
-5 0 -19 -6 -29 -14z"/>
<path d="M629 1191 c11 -7 7 -10 -15 -14 -16 -2 -8 -4 18 -3 27 0 48 4 48 7 0
9 -27 19 -48 19 -14 0 -15 -2 -3 -9z"/>
<path d="M455 1079 c-4 -6 -5 -12 -2 -15 2 -3 7 2 10 11 7 17 1 20 -8 4z"/>
<path d="M436 1035 c-3 -9 -6 -26 -5 -38 1 -16 4 -12 10 12 10 34 6 55 -5 26z"/>
<path d="M931 1014 c0 -11 3 -14 6 -6 3 7 2 16 -1 19 -3 4 -6 -2 -5 -13z"/>
<path d="M554 931 c7 -37 63 -122 86 -129 8 -3 3 8 -12 24 -15 16 -39 54 -53
84 -23 47 -26 50 -21 21z"/>
<path d="M785 921 c-3 -5 -19 -12 -35 -16 -16 -4 -32 -11 -35 -15 -8 -13 57
10 75 26 8 8 11 14 8 14 -4 0 -9 -4 -13 -9z"/>
<path d="M621 905 c0 -5 8 -26 19 -45 11 -19 19 -30 19 -25 0 6 -8 26 -19 45
-11 19 -19 31 -19 25z"/>
<path d="M450 793 c0 -13 60 -83 71 -83 5 0 9 7 9 15 0 8 -4 15 -9 15 -5 0
-23 14 -40 31 -17 17 -31 27 -31 22z"/>
<path d="M683 793 c9 -2 25 -2 35 0 9 3 1 5 -18 5 -19 0 -27 -2 -17 -5z"/>
<path d="M670 720 c-34 -7 -34 -7 -5 -8 17 0 39 3 50 8 24 10 4 10 -45 0z"/>
<path d="M431 626 c2 -2 15 -9 29 -15 24 -11 24 -11 6 3 -16 13 -49 24 -35 12z"/>
<path d="M1443 1125 c0 -22 2 -30 4 -17 2 12 2 30 0 40 -3 9 -5 -1 -4 -23z"/>
<path d="M1256 1063 c-3 -4 -6 -62 -6 -130 0 -153 -18 -240 -73 -353 -55 -113
-169 -231 -274 -284 -233 -116 -483 -79 -684 102 -50 46 -58 50 -49 27 6 -15
8 -30 5 -35 -3 -5 -1 -11 5 -15 15 -9 12 -62 -5 -95 -18 -34 -15 -34 -52 -18
-15 6 -37 13 -48 15 -10 2 -29 10 -42 18 -12 8 -25 15 -28 15 -3 0 -5 -70 -3
-155 l2 -155 743 0 743 0 0 475 0 475 -30 0 c-16 0 -30 4 -30 9 0 11 -106 81
-124 81 -8 0 -21 7 -29 15 -8 8 -17 11 -21 8z m94 -490 c34 -25 64 -52 67 -59
3 -7 -11 -30 -30 -50 -40 -43 -56 -42 -130 7 -45 29 -48 34 -41 63 10 50 33
86 53 86 11 0 47 -21 81 -47z m-1304 -548 c-9 -23 -26 -9 -26 23 0 24 1 25 16
10 10 -9 14 -24 10 -33z"/>
</g>
</svg>
